# xmcd
#
# Track frame offsets: 
#        150
#        16296
#        35206
#        46796
#        68288
#        81718
#        93819
#        110529
#        124014
#        134654
#        151912
#        163217
#        173957
#        188767
#        202464
#        213538
#        233895
#        250017
#        264111
#        281928
#        298157
#        312064
#        325979
#        339899
#
# Disc length: 4675 seconds
#
# Revision: 0
# Processed by: cddbd v1.5.2PL0 Copyright (c) Steve Scherf et al.
# Submitted via: ExactAudioCopy v0.95b4
#
DISCID=65124118
DTITLE=Various Artist - Country
DYEAR=2006
DGENRE=Country
TTITLE0=Big House/Cold outside
TTITLE1=Dixie Chicks/Long time gone
TTITLE2=Alan Jackson/Little bity
TTITLE3=Travis Tritt/Modern day Bonnie and Clide
TTITLE4=Trace Adkins/I left something turned on at home
TTITLE5=Daryle Singletary/Too much fun
TTITLE6=Dixie Chicks/Too much fun
TTITLE7=Vince Gill/One more last change
TTITLE8=Diamond Rio/Unbelievable
TTITLE9=Alan Jackson/I don't even know your name
TTITLE10=BR5-43/Honky tonk song
TTITLE11=Dixie Chicks/White trash wedding
TTITLE12=Books and Dunn/My Maria
TTITLE13=Travis Tritt/Country club
TTITLE14=Dixie Chicks/Some  days you gotta dance
TTITLE15=Brooks And Dunn/Only in America
TTITLE16=Shania Twain/Love gets me every time
TTITLE17=Terry Clark/Better things
TTITLE18=Alan Jackson/Chatta hoochee
TTITLE19=L.A. Womack/I'll think of a reason later
TTITLE20=Alan Jackson/Chasin' that neon rainbow
TTITLE21=Alan Jackson/Ace of hearts
TTITLE22=Black Hawk/There you have it
TTITLE23=Alan Jackson/Don't rock the jukebox
EXTD=
EXTT0=
EXTT1=
EXTT2=
EXTT3=
EXTT4=
EXTT5=
EXTT6=
EXTT7=
EXTT8=
EXTT9=
EXTT10=
EXTT11=
EXTT12=
EXTT13=
EXTT14=
EXTT15=
EXTT16=
EXTT17=
EXTT18=
EXTT19=
EXTT20=
EXTT21=
EXTT22=
EXTT23=
PLAYORDER=
